<svg width="41" height="41" viewBox="0 0 41 41" fill="none" xmlns="http://www.w3.org/2000/svg">
<circle cx="20.2992" cy="20.7942" r="20" fill="white"/>
<path d="M18.2992 18.7942H21.0662V20.2122H21.1062C21.4912 19.5212 22.4332 18.7942 23.8382 18.7942C26.7592 18.7942 27.2992 20.6122 27.2992 22.9772V27.7942H24.4142V23.5242C24.4142 22.5062 24.3932 21.1952 22.9142 21.1952C21.4122 21.1952 21.1822 22.3042 21.1822 23.4502V27.7942H18.2992V18.7942Z" fill="#003753"/>
<path d="M13.2992 18.7942H16.2992V27.7942H13.2992V18.7942Z" fill="#003753"/>
<path d="M16.2992 16.2942C16.2991 16.6922 16.1408 17.0738 15.8593 17.3551C15.5779 17.6364 15.1961 17.7943 14.7982 17.7942C14.4002 17.7941 14.0186 17.6359 13.7373 17.3544C13.456 17.0729 13.2981 16.6912 13.2982 16.2932C13.2983 15.8953 13.4565 15.5137 13.738 15.2323C13.8774 15.0931 14.0429 14.9826 14.2249 14.9072C14.407 14.8319 14.6021 14.7931 14.7992 14.7932C14.9962 14.7933 15.1913 14.8322 15.3734 14.9076C15.5554 14.9831 15.7208 15.0937 15.8601 15.2331C15.9993 15.3724 16.1098 15.5379 16.1852 15.72C16.2605 15.902 16.2993 16.0972 16.2992 16.2942Z" fill="#003753"/>
</svg>
