<svg width="180" height="36" viewBox="0 0 180 36" fill="none" xmlns="http://www.w3.org/2000/svg">
<path fill-rule="evenodd" clip-rule="evenodd" d="M28.2775 4.92836C28.5307 4.92836 28.7559 5.09056 28.8372 5.33179L31.2951 12.6198C32.6785 16.9078 33.7882 20.4862 34.624 23.3548C35.7482 19.6745 36.8715 16.0974 37.9957 12.6198L40.4537 5.33179C40.5349 5.09056 40.7601 4.92836 41.0134 4.92836H44.3299C44.7395 4.92836 45.025 5.33714 44.8858 5.72454L36.094 30.1775C35.3442 32.321 34.3503 33.8275 33.1106 34.6964C31.8717 35.5663 30.1136 36 27.8362 36C27.2472 36 26.6745 35.9756 26.1183 35.926C25.8169 35.899 25.5887 35.639 25.5887 35.3348V32.9442C25.5887 32.616 25.8532 32.3501 26.1798 32.3501H27.7499C29.6806 32.3501 30.9777 31.4523 31.6409 29.6562C31.6988 29.4827 31.7925 29.2067 31.9216 28.83C32.0517 28.4533 32.1599 28.1642 32.2464 27.9613L24.2742 5.72395C24.1353 5.33685 24.4208 4.92836 24.8301 4.92836H28.2775ZM103.729 4.40707C106.841 4.40707 109.32 5.46408 111.164 7.57959C113.009 9.69391 113.931 12.548 113.931 16.1397C113.931 19.7037 113.009 22.5432 111.164 24.6587C109.292 26.8022 106.813 27.8738 103.729 27.8738C100.559 27.8738 98.1378 26.6575 96.466 24.2235V35.2761C96.466 35.6041 96.2015 35.8703 95.8749 35.8703H92.734C92.4078 35.8703 92.143 35.6041 92.143 35.2761V5.52261C92.143 5.19433 92.4078 4.92845 92.734 4.92845H95.7024C96.0286 4.92845 96.2934 5.19433 96.2934 5.52261V8.31844C97.965 5.71096 100.444 4.40707 103.729 4.40707ZM124.791 4.40707C130.66 4.40707 133.789 6.69638 134.179 11.2759C134.209 11.6235 133.936 11.9247 133.588 11.9247H130.561C130.261 11.9247 130.013 11.6977 129.975 11.3992C129.82 10.1678 129.374 9.2792 128.639 8.73108C127.803 8.10751 126.521 7.79587 124.791 7.79587C123.408 7.79587 122.342 8.057 121.592 8.57837C120.843 9.09975 120.468 9.8386 120.468 10.7946C120.468 11.6648 120.8 12.3373 121.462 12.8159C122.125 13.2933 123.178 13.6781 124.618 13.9674L126.953 14.3584C129.691 14.8798 131.665 15.6623 132.876 16.7047C134.087 17.7487 134.691 19.1969 134.691 21.051C134.691 23.2235 133.87 24.9122 132.227 26.1138C130.585 27.3167 128.293 27.9174 125.353 27.9174C119.432 27.9174 116.195 25.5764 115.643 20.8927C115.601 20.5385 115.877 20.2248 116.231 20.2248H119.393C119.682 20.2248 119.927 20.4363 119.975 20.7227C120.194 22.0257 120.675 22.9606 121.42 23.5286C122.255 24.1653 123.581 24.4835 125.397 24.4835C128.682 24.4835 130.325 23.4413 130.325 21.3549C130.325 20.4568 129.979 19.762 129.288 19.27C128.596 18.7766 127.356 18.3707 125.57 18.0523L123.278 17.6173C118.552 16.7484 116.189 14.5176 116.189 10.9259C116.189 8.92596 116.952 7.33955 118.48 6.16727C120.007 4.99321 122.111 4.40707 124.791 4.40707ZM78.3433 4.40701C84.2232 4.40701 87.1629 6.60867 87.1629 11.012V22.8762C87.1629 23.6296 87.566 24.0063 88.3737 24.0063H88.9931C89.3194 24.0063 89.5842 24.2722 89.5842 24.6005V26.8211C89.5842 27.1203 89.3436 27.3865 89.0475 27.4141C88.5581 27.4601 88.0306 27.4824 87.4649 27.4824C86.0818 27.4824 85.0519 27.229 84.3742 26.7225C83.6969 26.216 83.2864 25.4109 83.1419 24.3099C81.6438 26.6866 79.2228 27.8737 75.8795 27.8737C73.4298 27.8737 71.4917 27.2876 70.0646 26.1138C68.6383 24.9412 67.9246 23.3111 67.9246 21.2247C67.9246 17.169 70.7204 14.8506 76.3115 14.2725L79.5976 13.9234C80.7498 13.7787 81.593 13.4816 82.1261 13.0336C82.6599 12.5838 82.9264 11.9395 82.9264 11.0996C82.9264 9.96984 82.5727 9.15139 81.8669 8.64338C81.1609 8.13686 79.9868 7.88345 78.3433 7.88345C76.5568 7.88345 75.2742 8.18052 74.4961 8.77468C73.8096 9.29784 73.3807 10.1772 73.2105 11.4122C73.17 11.7051 72.9212 11.9246 72.6268 11.9246H69.5255C69.1706 11.9246 68.8943 11.6106 68.9368 11.2562C69.4862 6.68978 72.6212 4.40701 78.3433 4.40701ZM147.15 4.40692C150.436 4.40692 153.029 5.52245 154.932 7.75323C156.805 9.9843 157.742 12.8372 157.742 16.3148V16.9809C157.742 17.3088 157.477 17.575 157.151 17.575H140.925C141.126 19.7767 141.775 21.4344 142.87 22.5499C143.966 23.6655 145.45 24.2237 147.323 24.2237C150.007 24.2237 151.806 23.0992 152.72 20.8491C152.81 20.6284 153.026 20.4861 153.263 20.4861H156.424C156.828 20.4861 157.117 20.8866 156.987 21.2704C156.335 23.191 155.239 24.7323 153.7 25.8962C151.956 27.2147 149.801 27.8739 147.236 27.8739C144.037 27.8739 141.458 26.802 139.498 24.6586C137.538 22.514 136.558 19.6745 136.558 16.1398C136.558 12.6063 137.538 9.76684 139.498 7.62222C141.458 5.47878 144.009 4.40692 147.15 4.40692ZM55.3942 4.40704C60.5824 4.40704 64.7983 8.59258 64.8821 13.7882L64.8834 13.946V26.7582C64.8834 27.0738 64.6389 27.3318 64.3297 27.3512L64.2923 27.3523H61.1514C60.8374 27.3523 60.5808 27.1065 60.5615 26.7958L60.5604 26.7582V13.946C60.5604 11.078 58.2472 8.75274 55.3942 8.75274C52.5696 8.75274 50.2746 11.0317 50.229 13.8601L50.2283 13.946V26.7582C50.2283 27.0738 49.9834 27.3318 49.6746 27.3512L49.6372 27.3523H46.4963C46.1823 27.3523 45.9257 27.1065 45.9064 26.7958L45.9052 26.7582V13.946C45.9052 8.67757 50.1535 4.40704 55.3942 4.40704ZM3.73797 15.7115C4.0471 15.7115 4.30096 15.9515 4.32519 16.2611C4.59058 19.6398 7.28199 22.3643 10.6626 22.6316C10.9577 22.6547 11.189 22.8903 11.2078 23.1831L11.209 23.2216V26.3832C11.209 26.7305 10.9265 26.9975 10.5816 26.9785C4.89055 26.6616 0.316017 22.0633 0.000979469 16.3425C-0.0175442 16.0081 0.228836 15.7318 0.556226 15.7125L0.592929 15.7115H3.73797ZM82.9264 16.1399C82.3788 16.6039 81.4564 16.9079 80.1596 17.0534L77.0465 17.401C75.3753 17.6039 74.1793 18.002 73.4582 18.5962C72.7377 19.1903 72.3777 20.0233 72.3777 21.0949C72.3777 22.1665 72.7306 22.9995 73.4372 23.5936C74.1429 24.1878 75.1734 24.4837 76.5279 24.4837C78.3723 24.4837 79.8996 23.9623 81.1101 22.9199C82.3206 21.8774 82.9264 20.4 82.9264 18.4874V16.1399ZM102.907 8.14465C100.919 8.14465 99.3339 8.83981 98.1523 10.2295C96.9702 11.6793 96.3797 13.6489 96.3797 16.1397C96.3797 18.6319 96.9702 20.587 98.1523 22.0073C99.3049 23.4265 100.89 24.1362 102.907 24.1362C104.925 24.1362 106.525 23.4119 107.706 21.9636C108.859 20.5445 109.435 18.5457 109.435 15.9662C109.435 13.4752 108.859 11.548 107.706 10.1871C106.553 8.82496 104.954 8.14465 102.907 8.14465ZM3.73807 4.42697C4.04719 4.42697 4.30105 4.66702 4.32529 4.97657C4.60457 8.54867 7.5853 11.3686 11.2091 11.3686C17.188 11.3686 22.0903 16.0924 22.4169 22.0222C22.4351 22.3519 22.1843 22.6324 21.8608 22.6521L21.8246 22.6532H18.6796C18.3704 22.6532 18.1169 22.4131 18.0926 22.1036C17.8131 18.5315 14.8326 15.7116 11.2091 15.7116C5.2302 15.7116 0.327624 10.9877 0.00106146 5.05797C-0.0171772 4.72824 0.233614 4.44769 0.556814 4.42807L0.593011 4.42697H3.73807ZM147.15 8.05715C145.45 8.05715 144.059 8.57823 142.978 9.62217C141.898 10.6646 141.227 12.1714 140.968 14.1411H153.289C153.087 12.3158 152.446 10.8464 151.365 9.73091C150.284 8.61537 148.879 8.05715 147.15 8.05715ZM11.8 0L11.8367 0.000947571C17.5278 0.317932 22.1017 4.91645 22.4168 10.637C22.4353 10.9716 22.1889 11.2477 21.8615 11.2669L21.8248 11.268H18.6804C18.3712 11.268 18.1174 11.028 18.0932 10.7181C17.8287 7.32101 15.1319 4.61401 11.7561 4.34813C11.4607 4.32478 11.229 4.08917 11.2103 3.79608L11.209 3.75753V0.596297C11.209 0.273816 11.4529 0.0205011 11.7639 0.00118103L11.8 0ZM173.435 4.90964V5.79257H170.114V7.47731H173.163V8.33557H170.114V10.1894H173.467V11.0726H169.069V4.90964H173.435ZM176.95 4.90156C177.956 4.90156 178.716 5.16151 179.23 5.68467C179.743 6.20605 180 6.97786 180 7.99893C180 8.9885 179.743 9.74783 179.23 10.2787C178.716 10.8078 177.975 11.0725 177.006 11.0725H174.771V4.90156H176.95ZM162.1 4.90953L163.633 9.20293L163.944 10.205L164.263 9.20293L165.852 4.90953H167.425V11.0725H166.434V6.3061L166.442 5.64866L166.235 6.3061L164.439 11.0725H163.441L161.653 6.3061L161.438 5.62341L161.446 6.3061V11.0725H160.456V4.90953H162.1ZM176.958 5.77705H175.832V10.205H177.014C177.615 10.205 178.086 10.0375 178.427 9.7009C178.768 9.37352 178.938 8.80669 178.938 7.99893C178.938 7.17987 178.765 6.60532 178.419 6.27348C178.062 5.94135 177.575 5.77705 176.958 5.77705Z" fill="#003753"/>
</svg>
