<svg width="177" height="36" viewBox="0 0 177 36" fill="none" xmlns="http://www.w3.org/2000/svg">
<path fill-rule="evenodd" clip-rule="evenodd" d="M27.8062 5.05562C28.0552 5.05562 28.2766 5.21332 28.3566 5.44784L30.7735 12.5334C32.1339 16.7023 33.2251 20.1813 34.0469 22.9702C35.1524 19.3922 36.257 15.9144 37.3625 12.5334L39.7794 5.44784C39.8594 5.21332 40.0808 5.05562 40.3298 5.05562H43.591C43.9938 5.05562 44.2745 5.45305 44.1377 5.82968L35.4924 29.6034C34.7551 31.6873 33.7778 33.152 32.5587 33.9968C31.3405 34.8425 29.6117 35.2642 27.3723 35.2642C26.7931 35.2642 26.2299 35.2405 25.683 35.1922C25.3866 35.166 25.1622 34.9132 25.1622 34.6175V32.2933C25.1622 31.9741 25.4223 31.7156 25.7434 31.7156H27.2874C29.1859 31.7156 30.4614 30.8428 31.1135 29.0965C31.1705 28.9279 31.2626 28.6595 31.3896 28.2933C31.5175 27.9271 31.6239 27.646 31.709 27.4488L23.8696 5.82911C23.733 5.45276 24.0137 5.05562 24.4162 5.05562H27.8062ZM102 4.54881C105.061 4.54881 107.498 5.57646 109.312 7.63321C111.126 9.6888 112.032 12.4636 112.032 15.9555C112.032 19.4206 111.126 22.1812 109.312 24.2379C107.47 26.3218 105.033 27.3636 102 27.3636C98.8829 27.3636 96.5022 26.1812 94.8582 23.8148V34.5604C94.8582 34.8792 94.5981 35.138 94.277 35.138H91.1885C90.8676 35.138 90.6073 34.8792 90.6073 34.5604V5.63336C90.6073 5.31421 90.8676 5.05571 91.1885 5.05571H94.1073C94.4281 5.05571 94.6885 5.31421 94.6885 5.63336V8.35153C96.3322 5.81648 98.7695 4.54881 102 4.54881ZM122.711 4.54881C128.482 4.54881 131.559 6.77453 131.943 11.2268C131.972 11.5647 131.703 11.8576 131.362 11.8576H128.385C128.09 11.8576 127.846 11.6369 127.809 11.3467C127.656 10.1495 127.218 9.2856 126.495 8.75271C125.673 8.14646 124.412 7.84348 122.711 7.84348C121.351 7.84348 120.303 8.09735 119.566 8.60424C118.829 9.11114 118.46 9.82946 118.46 10.7589C118.46 11.6049 118.786 12.2588 119.438 12.7241C120.09 13.1882 121.125 13.5623 122.541 13.8436L124.837 14.2237C127.529 14.7306 129.471 15.4914 130.661 16.5049C131.852 17.5198 132.446 18.9278 132.446 20.7304C132.446 22.8426 131.639 24.4843 130.024 25.6526C128.408 26.8221 126.155 27.4061 123.264 27.4061C117.441 27.4061 114.259 25.1301 113.715 20.5765C113.674 20.2322 113.946 19.9272 114.294 19.9272H117.403C117.687 19.9272 117.928 20.1328 117.975 20.4113C118.19 21.6781 118.664 22.587 119.396 23.1392C120.218 23.7582 121.521 24.0675 123.307 24.0675C126.538 24.0675 128.153 23.0543 128.153 21.0259C128.153 20.1528 127.813 19.4772 127.133 18.9989C126.452 18.5191 125.234 18.1246 123.477 17.815L121.224 17.3921C116.576 16.5473 114.252 14.3785 114.252 10.8866C114.252 8.94217 115.003 7.39983 116.505 6.26012C118.007 5.11867 120.076 4.54881 122.711 4.54881ZM77.0376 4.54876C82.8195 4.54876 85.7102 6.68925 85.7102 10.9703V22.5049C85.7102 23.2374 86.1065 23.6036 86.9008 23.6036H87.5099C87.8307 23.6036 88.0911 23.8621 88.0911 24.1813V26.3403C88.0911 26.6311 87.8545 26.8899 87.5633 26.9168C87.0821 26.9615 86.5634 26.9832 86.0072 26.9832C84.6471 26.9832 83.6343 26.7368 82.968 26.2444C82.3019 25.7519 81.8983 24.9692 81.7562 23.8988C80.2831 26.2094 77.9024 27.3636 74.6148 27.3636C72.206 27.3636 70.3002 26.7937 68.8968 25.6526C67.4944 24.5126 66.7926 22.9278 66.7926 20.8993C66.7926 16.9562 69.5417 14.7022 75.0397 14.1402L78.2709 13.8008C79.404 13.6601 80.2331 13.3713 80.7573 12.9357C81.2822 12.4985 81.5443 11.872 81.5443 11.0555C81.5443 9.95706 81.1965 9.16135 80.5025 8.66745C79.8082 8.175 78.6536 7.92862 77.0376 7.92862C75.2809 7.92862 74.0196 8.21745 73.2545 8.7951C72.5794 9.30373 72.1577 10.1587 71.9903 11.3593C71.9505 11.6441 71.7058 11.8575 71.4164 11.8575H68.3668C68.0177 11.8575 67.746 11.5523 67.7879 11.2077C68.3281 6.76812 71.4109 4.54876 77.0376 4.54876ZM144.698 4.54866C147.929 4.54866 150.479 5.63321 152.35 7.80202C154.191 9.97112 155.113 12.7447 155.113 16.1258V16.7733C155.113 17.0922 154.852 17.351 154.531 17.351H138.576C138.774 19.4915 139.412 21.1031 140.489 22.1877C141.566 23.2722 143.026 23.815 144.868 23.815C147.507 23.815 149.276 22.7217 150.175 20.5342C150.263 20.3196 150.476 20.1812 150.709 20.1812H153.817C154.214 20.1812 154.499 20.5705 154.37 20.9437C153.729 22.811 152.651 24.3094 151.138 25.4411C149.423 26.7229 147.305 27.3638 144.782 27.3638C141.637 27.3638 139.1 26.3217 137.173 24.2378C135.246 22.1527 134.282 19.3921 134.282 15.9557C134.282 12.5203 135.246 9.7597 137.173 7.67465C139.1 5.59075 141.608 4.54866 144.698 4.54866ZM54.4709 4.54878C59.5727 4.54878 63.7184 8.61806 63.8008 13.6694L63.802 13.8228V26.2791C63.802 26.5859 63.5615 26.8367 63.2576 26.8556L63.2208 26.8567H60.1322C59.8235 26.8567 59.5711 26.6177 59.5522 26.3156L59.551 26.2791V13.8228C59.551 11.0344 57.2764 8.77377 54.4709 8.77377C51.6935 8.77377 49.4367 10.9894 49.3918 13.7393L49.3911 13.8228V26.2791C49.3911 26.5859 49.1504 26.8367 48.8466 26.8556L48.8099 26.8567H45.7213C45.4126 26.8567 45.1602 26.6177 45.1413 26.3156L45.1401 26.2791V13.8228C45.1401 8.70068 49.3176 4.54878 54.4709 4.54878ZM3.67567 15.5392C3.97965 15.5392 4.22928 15.7726 4.25311 16.0735C4.51407 19.3584 7.16063 22.0072 10.4849 22.2671C10.7751 22.2896 11.0026 22.5186 11.021 22.8033L11.0222 22.8408V25.9145C11.0222 26.2521 10.7444 26.5118 10.4052 26.4933C4.80904 26.1851 0.31075 21.7146 0.000963145 16.1527C-0.0172518 15.8276 0.225022 15.559 0.546956 15.5402L0.583047 15.5392H3.67567ZM81.5443 15.9557C81.0058 16.4069 80.0988 16.7024 78.8236 16.8439L75.7624 17.1818C74.119 17.3791 72.9429 17.7661 72.2339 18.3438C71.5254 18.9214 71.1714 19.7313 71.1714 20.7731C71.1714 21.8149 71.5184 22.6248 72.2132 23.2024C72.9072 23.7801 73.9205 24.0678 75.2524 24.0678C77.0661 24.0678 78.5679 23.5609 79.7582 22.5474C80.9486 21.5339 81.5443 20.0975 81.5443 18.2381V15.9557ZM101.192 8.18257C99.2371 8.18257 97.6783 8.85842 96.5164 10.2096C95.354 11.619 94.7734 13.534 94.7734 15.9555C94.7734 18.3785 95.354 20.2793 96.5164 21.6602C97.6498 23.0399 99.2086 23.7299 101.192 23.7299C103.176 23.7299 104.749 23.0257 105.911 21.6177C107.045 20.238 107.611 18.2947 107.611 15.7868C107.611 13.365 107.045 11.4914 105.911 10.1683C104.777 8.84398 103.205 8.18257 101.192 8.18257ZM3.67577 4.56816C3.97974 4.56816 4.22937 4.80154 4.2532 5.1025C4.52782 8.57537 7.45888 11.3169 11.0223 11.3169C16.9016 11.3169 21.7221 15.9096 22.0433 21.6746C22.0612 21.9952 21.8146 22.2679 21.4965 22.287L21.4609 22.2881H18.3682C18.0643 22.2881 17.8149 22.0547 17.7911 21.7537C17.5162 18.2809 14.5854 15.5393 11.0223 15.5393C5.14303 15.5393 0.322164 10.9466 0.00104377 5.18163C-0.0168909 4.86106 0.22972 4.5883 0.547534 4.56923L0.583128 4.56816H3.67577ZM144.698 8.0975C143.026 8.0975 141.658 8.6041 140.595 9.61905C139.533 10.6325 138.873 12.0975 138.618 14.0124H150.734C150.536 12.2379 149.905 10.8093 148.842 9.72476C147.779 8.64021 146.398 8.0975 144.698 8.0975ZM11.6034 0.26416L11.6395 0.265081C17.2357 0.573261 21.7334 5.04404 22.0432 10.6057C22.0614 10.931 21.8191 11.1994 21.4972 11.2181L21.4611 11.2192H18.369C18.0651 11.2192 17.8154 10.9858 17.7916 10.6846C17.5315 7.38181 14.8797 4.75001 11.5601 4.49151C11.2696 4.46881 11.0419 4.23974 11.0234 3.95479L11.0222 3.91731V0.843893C11.0222 0.53037 11.262 0.284092 11.5678 0.265308L11.6034 0.26416ZM170.545 5.03742V5.89582H167.279V7.53377H170.277V8.36819H167.279V10.1705H170.576V11.0292H166.251V5.03742H170.545ZM174.001 5.02957C174.99 5.02957 175.737 5.2823 176.242 5.79092C176.747 6.29782 177 7.04819 177 8.04089C177 9.00298 176.747 9.74122 176.242 10.2574C175.737 10.7718 175.009 11.0291 174.056 11.0291H171.858V5.02957H174.001ZM159.398 5.03731L160.905 9.21145L161.212 10.1857L161.525 9.21145L163.088 5.03731H164.634V11.0291H163.661V6.39509L163.668 5.75591L163.465 6.39509L161.699 11.0291H160.717L158.959 6.39509L158.747 5.73136L158.755 6.39509V11.0291H157.781V5.03731H159.398ZM174.008 5.88074H172.902V10.1857H174.064C174.655 10.1857 175.118 10.0228 175.453 9.69559C175.788 9.3773 175.955 8.82622 175.955 8.04089C175.955 7.24459 175.785 6.686 175.445 6.36338C175.094 6.04047 174.616 5.88074 174.008 5.88074Z" fill="white"/>
</svg>
