<svg width="37" height="29" viewBox="0 0 37 29" fill="none" xmlns="http://www.w3.org/2000/svg">
<path d="M9.2637 28.541C6.4797 28.541 4.23703 27.4197 2.5357 25.177C0.911701 22.857 0.0997009 20.0344 0.0997009 16.709C0.0997009 11.7597 1.53037 7.89304 4.3917 5.10904C7.33037 2.32504 11.3517 0.855707 16.4557 0.701042V6.15304C13.053 6.23037 10.5784 7.19704 9.0317 9.05305C7.48503 10.909 6.7117 13.0357 6.7117 15.433C6.7117 16.129 6.75037 16.6317 6.8277 16.941C7.7557 16.013 9.07037 15.549 10.7717 15.549C12.6277 15.549 14.097 16.0904 15.1797 17.173C16.3397 18.2557 16.9197 19.8024 16.9197 21.813C16.9197 23.7464 16.2237 25.3704 14.8317 26.685C13.517 27.9224 11.661 28.541 9.2637 28.541ZM29.3317 28.541C26.5477 28.541 24.305 27.4197 22.6037 25.177C20.9797 22.857 20.1677 20.0344 20.1677 16.709C20.1677 11.7597 21.5984 7.89304 24.4597 5.10904C27.3984 2.32504 31.4197 0.855707 36.5237 0.701042V6.15304C33.121 6.23037 30.6464 7.19704 29.0997 9.05305C27.553 10.909 26.7797 13.0357 26.7797 15.433C26.7797 16.129 26.8184 16.6317 26.8957 16.941C27.8237 16.013 29.1384 15.549 30.8397 15.549C32.6957 15.549 34.165 16.0904 35.2477 17.173C36.4077 18.2557 36.9877 19.8024 36.9877 21.813C36.9877 23.7464 36.2917 25.3704 34.8997 26.685C33.585 27.9224 31.729 28.541 29.3317 28.541Z" fill="#FFA48E"/>
</svg>
