<svg width="41" height="41" viewBox="0 0 41 41" fill="none" xmlns="http://www.w3.org/2000/svg">
<circle cx="20.5421" cy="20.1035" r="20" fill="white"/>
<path d="M30.6983 13.812C29.9512 14.1343 29.1382 14.3662 28.3008 14.4566C29.1703 13.94 29.8213 13.124 30.1319 12.1616C29.3161 12.647 28.4223 12.9873 27.4903 13.1675C27.1008 12.7511 26.6296 12.4193 26.1063 12.1929C25.5829 11.9665 25.0185 11.8503 24.4483 11.8516C22.1412 11.8516 20.2857 13.7217 20.2857 16.0166C20.2857 16.3389 20.3248 16.6611 20.3882 16.9712C16.9337 16.7905 13.8526 15.1401 11.8043 12.6133C11.431 13.2508 11.2354 13.9766 11.2379 14.7153C11.2379 16.1607 11.9727 17.4351 13.0933 18.1846C12.4329 18.1586 11.788 17.9771 11.211 17.6548V17.7061C11.211 19.73 12.6417 21.4072 14.5484 21.793C14.1904 21.886 13.8221 21.9335 13.4522 21.9346C13.1812 21.9346 12.9249 21.9077 12.6661 21.8711C13.1934 23.5215 14.7291 24.7202 16.5577 24.7593C15.127 25.8799 13.335 26.5391 11.3892 26.5391C11.0401 26.5391 10.7178 26.5269 10.3834 26.4878C12.2291 27.6719 14.419 28.3555 16.7774 28.3555C24.4337 28.3555 28.6231 22.0127 28.6231 16.5073C28.6231 16.3267 28.6231 16.146 28.6109 15.9653C29.4214 15.3721 30.1319 14.6372 30.6983 13.812Z" fill="#003753"/>
</svg>
