<svg width="41" height="41" viewBox="0 0 41 41" fill="none" xmlns="http://www.w3.org/2000/svg">
<circle cx="20.9168" cy="20.9492" r="20" fill="white"/>
<path d="M31.3609 15.8891C31.2414 15.4438 31.007 15.0378 30.6812 14.7116C30.3555 14.3855 29.9497 14.1506 29.5047 14.0305C27.8664 13.5898 21.2992 13.5898 21.2992 13.5898C21.2992 13.5898 14.732 13.5898 13.0937 14.0281C12.6485 14.1478 12.2425 14.3826 11.9167 14.7088C11.5909 15.0351 11.3566 15.4413 11.2375 15.8867C10.7992 17.5273 10.7992 20.9492 10.7992 20.9492C10.7992 20.9492 10.7992 24.3711 11.2375 26.0094C11.4789 26.9141 12.1914 27.6266 13.0937 27.868C14.732 28.3086 21.2992 28.3086 21.2992 28.3086C21.2992 28.3086 27.8664 28.3086 29.5047 27.868C30.4093 27.6266 31.1195 26.9141 31.3609 26.0094C31.7992 24.3711 31.7992 20.9492 31.7992 20.9492C31.7992 20.9492 31.7992 17.5273 31.3609 15.8891ZM19.2133 24.0898V17.8086L24.6508 20.9258L19.2133 24.0898Z" fill="#003753"/>
</svg>
